<?xml version="1.0" encoding="UTF-8"?>
<svg width="28px" height="28px" viewBox="0 0 28 28" version="1.1" xmlns="http://www.w3.org/2000/svg" xmlns:xlink="http://www.w3.org/1999/xlink">
    <title>buzon-2</title>
    <g id="Vista-Cliente" stroke="none" stroke-width="1" fill="none" fill-rule="evenodd">
        <g id="06-Reservas-disponibles" transform="translate(-323.000000, -274.000000)" fill="#FFFFFF" fill-rule="nonzero">
            <g id="buzon-2" transform="translate(323.000000, 274.000000)">
                <path d="M21.7109375,6.3984375 L17.5,6.3984375 L17.5,4.921875 L19.9609375,4.921875 C21.3178984,4.921875 22.421875,3.81789844 22.421875,2.4609375 C22.421875,1.10397656 21.3178984,0 19.9609375,0 L15.859375,0 L15.859375,0.8203125 L15.859375,6.3984375 C15.859375,6.3984375 6.39909375,6.3984375 6.2890625,6.3984375 C2.82127344,6.3984375 0,9.21971094 0,12.6875 L0,22.2578125 L9.8984375,22.2578125 L9.8984375,28 L19.1953125,28 L19.1953125,22.2578125 L28,22.2578125 L28,12.6875 C28,9.21971094 25.1787266,6.3984375 21.7109375,6.3984375 Z M17.5,1.640625 L19.9609375,1.640625 C20.4132578,1.640625 20.78125,2.00861719 20.78125,2.4609375 C20.78125,2.91325781 20.4132578,3.28125 19.9609375,3.28125 L17.5,3.28125 L17.5,1.640625 Z M16.6796875,14.65625 C17.1320078,14.65625 17.5,15.0242422 17.5,15.4765625 C17.5,15.9288828 17.1320078,16.296875 16.6796875,16.296875 C16.2273672,16.296875 15.859375,15.9288828 15.859375,15.4765625 C15.859375,15.0242422 16.2273672,14.65625 16.6796875,14.65625 Z M10.9375,20.6171875 L1.640625,20.6171875 L1.640625,12.6875 C1.640625,10.1243516 3.72591406,8.0390625 6.2890625,8.0390625 C8.85221094,8.0390625 10.9375,10.1243516 10.9375,12.6875 L10.9375,20.6171875 Z M13.1796875,26.359375 L11.5390625,26.359375 L11.5390625,22.2578125 L13.1796875,22.2578125 L13.1796875,26.359375 Z M17.5546875,26.359375 L14.8203125,26.359375 L14.8203125,22.2578125 L17.5546875,22.2578125 L17.5546875,26.359375 Z M26.359375,20.6171875 L12.578125,20.6171875 L12.578125,12.6875 C12.578125,10.8478125 11.7840625,9.190125 10.5207266,8.0390625 L15.859375,8.0390625 L15.859375,13.1567187 C14.9045859,13.4953437 14.21875,14.4071484 14.21875,15.4765625 C14.21875,16.8335234 15.3227266,17.9375 16.6796875,17.9375 C18.0366484,17.9375 19.140625,16.8335234 19.140625,15.4765625 C19.140625,14.4071484 18.4547891,13.4953437 17.5,13.1567187 L17.5,8.0390625 L21.7109375,8.0390625 C24.2740859,8.0390625 26.359375,10.1243516 26.359375,12.6875 L26.359375,20.6171875 Z" id="Shape"></path>
            </g>
        </g>
    </g>
</svg>