<?xml version="1.0" encoding="UTF-8"?>
<svg width="40px" height="40px" viewBox="0 0 40 40" version="1.1" xmlns="http://www.w3.org/2000/svg" xmlns:xlink="http://www.w3.org/1999/xlink">
    <title>Group 2</title>
    <g id="Establecimiento" stroke="none" stroke-width="1" fill="none" fill-rule="evenodd">
        <g id="01-Bienvenidos" transform="translate(-197.000000, -738.000000)">
            <g id="Group-2" transform="translate(197.000000, 738.000000)">
                <g id="G+" fill="#000">
                    <circle id="Oval" cx="20" cy="20" r="20"></circle>
                </g>
                <path d="M19.9363746,29.8632812 C25.8236085,29.8632812 29.734375,25.6100813 29.734375,19.6068813 C29.734375,18.9194813 29.6650014,18.3888813 29.5684225,17.8596813 L19.9377349,17.8596813 L19.9377349,21.4688813 L25.7283898,21.4688813 C25.4917034,23.0018813 23.9750062,25.9950812 19.9377349,25.9950812 C16.4595331,25.9950812 13.6192964,23.0298812 13.6192964,19.3632812 C13.6192964,15.6966812 16.4581729,12.7300812 19.9377349,12.7300812 C21.9278049,12.7300812 23.2499841,13.6036812 24.0022115,14.3484812 L26.7717143,11.6128812 C24.9884048,9.89508125 22.6922747,8.86328125 19.9363746,8.86328125 C14.2994298,8.86328125 9.734375,13.5616812 9.734375,19.3632812 C9.734375,25.1648812 14.2994298,29.8632812 19.9363746,29.8632812 Z" id="Path" fill="#FFFFFF" fill-rule="nonzero"></path>
            </g>
        </g>
    </g>
</svg>