<?xml version="1.0" encoding="UTF-8"?>
<svg width="139px" height="69px" viewBox="0 0 139 69" version="1.1" xmlns="http://www.w3.org/2000/svg" xmlns:xlink="http://www.w3.org/1999/xlink">
    <title>Group 10</title>
    <g id="Establecimiento" stroke="none" stroke-width="1" fill="none" fill-rule="evenodd">
        <g id="04-Menu" transform="translate(-46.000000, -31.000000)" fill="#FFFFFF">
            <g id="Group-10" transform="translate(46.000000, 31.000000)">
                <polygon id="Fill-1" points="19 11 66 11 66 2 19 2"></polygon>
                <polygon id="Fill-2" points="19 66 66 66 66 57 19 57"></polygon>
                <polygon id="Fill-3" points="19 39 66 39 66 30 19 30"></polygon>
                <path d="M14,6.99996618 C14,10.8658786 10.8657423,14 6.99966182,14 C3.13425769,14 0,10.8658786 0,6.99996618 C0,3.13412142 3.13425769,0 6.99966182,0 C10.8657423,0 14,3.13412142 14,6.99996618" id="Fill-4"></path>
                <path d="M14,61.9996619 C14,65.8660451 10.8657423,69 6.99966182,69 C3.13425769,69 0,65.8660451 0,61.9996619 C0,58.1339549 3.13425769,55 6.99966182,55 C10.8657423,55 14,58.1339549 14,61.9996619" id="Fill-5"></path>
                <path d="M14,35 C14,38.8658937 10.8657423,42 6.99966182,42 C3.13425769,42 0,38.8658937 0,35 C0,31.1341063 3.13425769,28 6.99966182,28 C10.8657423,28 14,31.1341063 14,35" id="Fill-6"></path>
                <path d="M127.372887,3.82223758 L105,33.6493652 L82.6284263,3.82223758 L127.372887,3.82223758 Z M105.907107,35.4770774 L131,2 L79,2 L104.09355,35.4764178 L104.09355,65.1775645 L96.2941414,65.1775645 L96.2941414,67 L113.767602,67 L113.767602,65.1775645 L105.907107,65.1775645 L105.907107,35.4770774 Z" id="Fill-7"></path>
                <polygon id="Fill-8" points="129.832503 6 110 32.1502914 114.481873 38 139 6"></polygon>
                <polygon id="Fill-9" points="125 6 90 6 107.433218 29"></polygon>
            </g>
        </g>
    </g>
</svg>