<?xml version="1.0" encoding="UTF-8"?>
<svg width="291px" height="69px" viewBox="0 0 291 69" version="1.1" xmlns="http://www.w3.org/2000/svg" xmlns:xlink="http://www.w3.org/1999/xlink">
    <title>Group 28</title>
    <g id="Establecimiento" stroke="none" stroke-width="1" fill="none" fill-rule="evenodd">
        <g id="01-Bienvenidos" transform="translate(-42.000000, -32.000000)">
            <g id="Group-28" transform="translate(42.000000, 32.000000)">
                <path d="M149.284,65.4822 C148.729,66.2152 147.837,66.9692 147.044,67.4062 C146.013,67.9612 145.159,67.8412 145.318,66.6522 C145.715,63.8562 147.995,63.3202 148.352,62.2502 C148.709,61.0992 148.649,58.5612 148.649,57.9062 C148.63,57.4902 147.797,57.2922 147.737,57.5892 C147.579,58.5212 147.777,61.1782 147.302,61.6552 C146.528,62.4272 145.853,62.9432 145.278,63.5182 C142.919,65.8192 143.97,69.4282 147.718,68.2972 C148.57,68.0402 149.403,67.5242 150.038,66.6712 C150.236,66.4142 150.355,66.3352 150.534,66.0372 C150.673,65.8192 150.038,64.4902 149.284,65.4822 M148.808,55.9032 C149.126,55.5272 149.026,54.7332 148.333,54.7532 C147.916,54.7732 147.381,55.4672 147.817,55.8642 C148.114,56.1412 148.472,56.2802 148.808,55.9032" id="Fill-1" fill="#B42D66"></path>
                <path d="M157.355,57.7283 C157.375,57.4703 158.048,53.7823 158.465,51.7393 C158.783,50.2913 158.881,50.6283 158.921,52.1553 C158.941,52.9093 159.337,57.1133 159.239,57.5303 C158.504,57.5493 158.069,57.6093 157.355,57.7283 M159.616,64.6293 C159.754,65.2243 160.667,65.3433 161.083,65.0653 C161.361,64.8673 161.023,64.6493 160.964,64.2723 C160.607,62.3093 160.528,60.2473 160.349,58.1443 C160.786,58.1443 161.043,58.2833 161.142,58.2833 C161.42,58.3423 161.559,57.7883 161.301,57.6883 C161.083,57.5893 160.667,57.5303 160.309,57.5093 C160.21,56.7953 160.111,56.0223 160.072,55.2893 C160.051,54.5753 159.754,51.9173 159.595,51.2043 C159.278,49.7753 157.969,49.3993 157.473,50.6483 C156.482,53.1263 156.006,56.1413 155.589,58.0253 C155.332,58.0843 154.896,58.2043 154.697,58.3233 C154.261,58.5213 154.598,59.0173 154.916,58.8983 C155.332,58.7393 155.51,58.6793 155.451,58.8773 C155.391,59.1163 154.995,61.7533 154.876,62.6853 C154.816,63.0023 155.431,63.1813 155.768,63.2213 C156.68,63.3603 156.72,63.2013 156.72,62.1113 C156.72,61.6343 157.077,58.7983 157.215,58.4213 C157.592,58.3033 158.743,58.1843 159.239,58.1643 C159.318,59.2153 159.476,64.0343 159.616,64.6293" id="Fill-2" fill="#B42D66"></path>
                <path d="M179.683,62.9237 C179.425,62.4477 179.326,61.6547 179.346,60.9607 C179.366,58.9177 179.623,55.5467 179.703,54.5347 C179.862,52.1757 179.743,52.0957 178.692,51.6987 C177.997,51.4417 178.275,52.3937 178.235,52.8897 C178.176,54.1387 178.255,55.4467 177.997,56.8167 C177.74,58.3037 177.303,58.7597 176.609,60.1087 C175.974,61.3377 175.082,62.8637 174.705,61.8727 C174.369,60.9997 175.32,56.6167 177.224,56.4187 C177.799,56.3597 178.176,55.8437 177.284,55.4867 C175.3,54.6737 173.278,57.7877 173.178,60.5047 C173.099,62.6467 174.427,63.5987 175.578,62.8847 C176.688,62.1697 177.68,59.7507 177.819,59.7107 C178.017,59.6517 177.501,62.9437 178.513,63.4007 C178.989,63.6377 180.039,63.6177 179.683,62.9237" id="Fill-3" fill="#B42D66"></path>
                <path d="M186.782,55.4871 C186.842,55.2891 186.98,55.0701 186.901,54.8521 C186.742,54.4561 186.147,54.2771 185.849,54.4961 C184.045,55.7641 183.113,61.4361 185.433,63.1021 C185.929,63.4391895 186.94,63.5981 187.496,63.2211 C189.697,61.7541 189.499,55.9241 186.782,55.4871 M186.266,62.4871 C185.592,62.0511 185.532,60.1671 185.532,59.2951 C185.532,58.4021 185.87,56.9151 186.365,56.1411 C187.535,54.2981 188.289,63.7971 186.266,62.4871 M186.842,53.9801 C187.377,53.5441 187.773,53.0081 188.051,52.5121 C188.131,52.3341 188.229,52.2151 188.11,52.0561 C187.773,51.6201 187.456,51.3421 187.099,51.8381 C187,51.9771 186.484,53.0481 186.286,53.5631 C186.167,53.8811 186.504,54.2581 186.842,53.9801" id="Fill-4" fill="#B42D66"></path>
                <path d="M195.348,60.2264 C195.208,60.6234 194.832,61.9924 194.792,60.6234 C194.733,59.2944 195.031,57.7284 195.15,56.7164 C195.169,56.3994 195.189,56.1414 195.15,55.9624 C195.11,55.6854 193.582,54.6944 193.603,55.5854 C193.622,57.1724 192.948,61.1394 193.603,62.5274 C194.019,63.4194 194.971,63.7374 195.368,62.8044 C195.566,62.3094 196.815,57.5304 197.846,55.6654 C198.719,54.0984 197.906,61.6744 197.846,62.4274 C197.767,63.4584 199.333,64.1334 199.373,63.4004 C199.393,63.1624 199.314,62.8044 199.354,61.9714 C199.452,60.6634 199.989,56.2204 199.651,55.0904 C199.393,54.2774 198.044,53.8614 197.469,54.8924 C196.299,56.9344 196.101,57.8474 195.348,60.2264" id="Fill-5" fill="#B42D66"></path>
                <path d="M210.597,62.9237 C210.339,62.4477 210.24,61.6547 210.26,60.9607 C210.28,58.9177 210.537,55.5467 210.617,54.5347 C210.776,52.1757 210.657,52.0957 209.605,51.6987 C208.911,51.4417 209.189,52.3937 209.149,52.8897 C209.089,54.1387 209.169,55.4467 208.911,56.8167 C208.654,58.3037 208.217,58.7597 207.523,60.1087 C206.888,61.3377 205.996,62.8637 205.619,61.8727 C205.282,60.9997 206.234,56.6167 208.138,56.4187 C208.713,56.3597 209.089,55.8437 208.198,55.4867 C206.214,54.6737 204.192,57.7877 204.092,60.5047 C204.013,62.6467 205.341,63.5987 206.492,62.8847 C207.602,62.1697 208.594,59.7507 208.733,59.7107 C208.931,59.6517 208.415,62.9437 209.427,63.4007 C209.903,63.6377 210.953,63.6177 210.597,62.9237" id="Fill-6" fill="#B42D66"></path>
                <path d="M216.327,59.6912 C216.327,58.7592 216.942,56.6372 217.854,55.8642 C219.203,54.7542 219.382,55.5662 218.945,56.8952 C218.687,57.6882 217.081,59.3142 216.327,59.6912 M216.427,61.1782 C217.181,60.6032 217.835,60.1282 218.588,59.4732 C220.353,57.9652 221.166,54.7932 218.529,54.5752 C216.942,54.4562 216.169,55.6662 215.594,56.8552 C214.761,58.5022 214.582,61.7942 216.149,63.1222 C216.962,63.8162 218.47,63.9742 219.045,62.8642 C219.163,62.6062 219.103,61.9712 218.886,61.9922 C218.766,62.0112 218.588,62.2292 218.35,62.4482 C217.121,63.6182 216.546,62.3692 216.427,61.1782" id="Fill-7" fill="#B42D66"></path>
                <path d="M236.038,55.7449 C236.018,55.8049 234.948,60.6819 234.769,61.3169 C234.472,62.2889 234.472,62.5869 234.194,61.4959 C233.738,59.5529 233.679,57.7279 233.54,55.7249 C233.48,55.0119 233.282,54.6739 232.39,54.7539 C232.112,54.7929 231.914,55.0119 231.934,55.2889 C231.993,56.7569 232.132,61.9919 232.925,62.8639 C233.421,63.4389 234.71,63.9349 235.087,63.2009 C235.682,61.9919 236.951,56.8159 237.109,55.2099 C237.109,55.2099 236.99,54.7929 236.455,54.8329 C236.197,54.8519 236.157,55.3079 236.038,55.7449" id="Fill-8" fill="#B42D66"></path>
                <path d="M243.355,58.3621 C244.783,55.7641 245.318,56.0031 245.715,55.6061 C246.389,54.9311 244.981,54.7931 243.692,55.6851 C240.619,57.8071 240.34,62.7251 243.157,63.3001 C244.604,63.5981 245.418,60.6631 245.874,59.7511 C245.834,61.0591 245.458,62.9431 246.587,63.4001 C247.103,63.6181 248.234,63.5391 247.757,62.9241 C247.659,62.7851 247.54,62.5671 247.48,62.1111 C247.361,61.0401 247.401,58.9581 247.44,57.7481 C247.48,56.5971 247.917,55.1101 246.885,55.4471 C245.794,55.8041 246.052,56.1611 245.933,56.6371 C245.537,58.2231 245.477,58.8781 244.743,60.5441 C244.644,60.7821 243.732,63.0031 243.276,62.3481 C242.462,61.2181 242.72,59.5121 243.355,58.3621" id="Fill-9" fill="#B42D66"></path>
                <path d="M259.576,60.7821 C259.497,61.5151 259.358,62.3091 259.695,62.7851 C259.893,63.0831 260.885,63.5391 261.123,63.1221 C261.202,62.9431 261.063,62.7251 261.024,62.5081 C260.766,60.7621 261.896,56.3401 261.163,55.0911 C260.944,54.7541 260.31,54.4751 259.874,54.4561 C258.941,54.3961 258.108,55.5861 257.573,56.8161 C257.554,55.9241 257.732,55.1301 256.959,54.7931 C256.126,54.4161 255.808,54.9711 255.391,55.5471 C254.658,56.5381 254.519,57.0941 253.865,58.0651 C253.885,57.1921 253.983,56.1811 254.162,54.9711 C254.182,54.8521 252.774,54.2981 252.675,55.6061 C252.476,58.0851 252.457,60.2261 252.199,62.7651 C252.139,63.2011 252.695,63.5181 253.429,63.3011 C253.785,63.2011 253.686,63.1811 253.686,62.8041 C253.706,62.0911 253.725,61.2781 253.765,60.5641 C253.805,59.7911 255.134,57.0741 255.907,56.1411 C256.721,55.1301 255.847,61.9921 256.026,62.6851 C256.205,63.4991 257.652,63.6971 257.573,63.0831 C257.355,61.2781 257.494,60.8421 257.554,59.0371 C257.573,58.1251 258.01,57.3511 258.426,56.5381 C258.664,56.0821 259.199,55.1301 259.655,55.2491 C260.647,55.4681 259.655,60.0491 259.576,60.7821" id="Fill-10" fill="#B42D66"></path>
                <path d="M267.19,59.3143 C267.19,58.4023 267.527,56.9153 268.022,56.1413 C269.193,54.3173 269.946,63.7963 267.923,62.4873 C267.249,62.0513 267.19,60.1673 267.19,59.3143 M268.558,54.8523 C268.399,54.4753 267.804,54.2973 267.506,54.4963 C265.702,55.7643 264.77,61.4563 267.09,63.1023 C267.586,63.4593 268.597,63.6183 269.153,63.2413 C271.354,61.7533 271.156,55.9233 268.439,55.4873 C268.499,55.3083 268.637,55.0703 268.558,54.8523" id="Fill-11" fill="#B42D66"></path>
                <path d="M274.724,61.7733 C276.034,65.3823 280.594,62.6853 279.266,60.2473 C278.691,59.1563 276.727,58.1053 276.469,56.6763 C276.251,55.3683 277.382,54.9123 278.116,55.8833 C278.354,56.2013 279.305,55.3683 278.175,54.6343 C277.858,54.4363 277.005,54.2573 276.271,54.7133 C274.704,55.6663 275.22,57.8073 276.034,58.7793 C276.569,59.4333 277.421,60.0683 277.957,60.8813 C278.909,62.3293 276.113,63.5393 275.557,61.3773 C275.379,60.7423 274.585,61.3373 274.724,61.7733" id="Fill-12" fill="#B42D66"></path>
                <path d="M286.702,50.7869 C285.849,51.0449 285.016,51.5599 284.362,52.4129 C284.183,52.6709 284.045,52.7509 283.866,53.0479 C283.727,53.2659 284.362,54.5949 285.116,53.6029 C285.671,52.8689 286.563,52.1159 287.377,51.6599 C288.408,51.1039 289.261,51.2429 289.082,52.4329 C288.685,55.2289 286.425,55.7649 286.067,56.8359 C285.691,57.9659 285.751,60.5239 285.77,61.1589 C285.77,61.5749 286.623,61.7939 286.663,61.4959 C286.821,60.5639 286.623,57.9059 287.119,57.4309 C287.872,56.6569 288.547,56.1409 289.141,55.5659 C291.502,53.2659 290.431,49.6369 286.702,50.7869 M285.611,63.1819 C285.294,63.5389 285.393,64.3509 286.067,64.3119 C286.504,64.3119 287.019,63.6179 286.603,63.2219 C286.306,62.9429 285.949,62.8049 285.611,63.1819" id="Fill-13" fill="#B42D66"></path>
                <path d="M165.445,1.8123 L153.125,18.1703 L140.803,1.8123 L165.445,1.8123 Z M153.624,19.1733 L167.443,0.8123 L138.805,0.8123 L152.625,19.1733 L152.625,35.4623 L148.329,35.4623 L148.329,36.4613 L157.953,36.4613 L157.953,35.4623 L153.624,35.4623 L153.624,19.1733 Z" id="Fill-14" fill="#B42D66"></path>
                <polygon id="Fill-15" fill="#000000" points="166.459 2.9783 155.685 17.4353 158.119 20.6693 171.439 2.9783"></polygon>
                <polygon id="Fill-16" fill="#000000" points="163.853 2.9783 144.799 2.9783 154.289 15.5833"></polygon>
                <polygon id="Fill-17" fill="#B42D66" points="68.5807 0.8172 76.2217 0.8172 76.2217 36.4582 68.9327 36.4582 51.8407 13.1832 51.8407 36.4582 44.1997 36.4582 44.1997 0.8172 51.3387 0.8172 68.5807 24.2432"></polygon>
                <polygon id="Fill-18" fill="#B42D66" points="122.352 29.5203 136.981 29.5203 136.981 36.4573 114.711 36.4573 114.711 0.8173 122.352 0.8173"></polygon>
                <path d="M196.337,18.1102 C197.744,18.9482 198.816,20.0202 199.554,21.3272 C200.291,22.6332 200.66,24.1412 200.66,25.8502 C200.66,27.4602 200.275,28.9602 199.504,30.3502 C198.733,31.7412 197.644,32.9732 196.236,34.0452 C194.962,35.0172 193.513,35.7622 191.888,36.2822 C190.262,36.8002 188.545,37.0782 186.735,37.1112 C184.926,37.1112 183.199,36.8602 181.558,36.3572 C179.915,35.8542 178.457,35.1002 177.185,34.0942 C175.275,32.6552 173.967,30.9122 173.264,28.8672 L180.301,25.6002 C180.301,25.9352 180.418,26.3542 180.652,26.8562 C180.887,27.3592 181.256,27.8452 181.759,28.3142 C182.262,28.7842 182.915,29.1862 183.719,29.5202 C184.524,29.8562 185.512,30.0232 186.685,30.0232 C187.623,30.0232 188.452,29.9072 189.174,29.6722 C189.894,29.4372 190.497,29.1432 190.983,28.7922 C191.469,28.4402 191.838,28.0382 192.089,27.5852 C192.34,27.1332 192.466,26.6732 192.466,26.2032 C192.466,25.6672 192.29,25.1652 191.939,24.6952 C191.586,24.2252 191.041,23.8582 190.305,23.5892 C188.964,23.1202 187.548,22.7262 186.057,22.4072 C184.566,22.0892 183.116,21.6872 181.708,21.2012 C180.301,20.7152 178.994,20.0702 177.787,19.2662 C176.581,18.4622 175.626,17.3392 174.922,15.8972 C174.285,14.6252 173.967,13.2672 173.967,11.8262 C173.967,10.2172 174.344,8.6592 175.098,7.1512 C175.853,5.6432 176.883,4.3702 178.19,3.3302 C179.429,2.3592 180.82,1.6132 182.362,1.0932 C183.903,0.5742 185.529,0.3142 187.238,0.3142 C188.947,0.3142 190.581,0.5662 192.14,1.0682 C193.697,1.5712 195.097,2.3092 196.337,3.2802 C197.543,4.1852 198.498,5.2412 199.202,6.4472 L193.472,10.3682 C192.768,9.3972 191.888,8.6172 190.832,8.0302 C189.776,7.4442 188.596,7.1512 187.288,7.1512 C185.479,7.1512 184.079,7.5532 183.091,8.3572 C182.102,9.1622 181.608,10.2172 181.608,11.5242 C181.608,12.1282 181.885,12.6642 182.438,13.1332 C182.99,13.6032 183.711,14.0212 184.599,14.3902 C185.486,14.7592 186.484,15.0862 187.59,15.3702 C188.695,15.6552 189.793,15.9402 190.883,16.2242 C191.971,16.5092 193.002,16.8022 193.974,17.1042 C194.945,17.4062 195.733,17.7412 196.337,18.1102" id="Fill-19" fill="#B42D66"></path>
                <polygon id="Fill-20" fill="#B42D66" points="213.418 0.8172 239.256 0.8172 239.256 7.7542 230.157 7.7542 230.157 36.4582 222.517 36.4582 222.517 7.7542 213.418 7.7542"></polygon>
                <path d="M275.19,21.8797 L270.515,10.6697 L265.839,21.8797 L275.19,21.8797 Z M274.637,0.8177 L289.516,36.4577 L281.272,36.4577 L278.055,28.8167 L262.924,28.8167 L259.757,36.4577 L251.462,36.4577 L266.342,0.8177 L274.637,0.8177 Z" id="Fill-21" fill="#B42D66"></path>
                <polygon id="Fill-22" fill="#000000" points="10.2992 6.1946 35.7492 6.1946 35.7492 1.2026 10.2992 1.2026"></polygon>
                <polygon id="Fill-23" fill="#000000" points="10.2892 36.1436 35.7392 36.1436 35.7392 31.1526 10.2892 31.1526"></polygon>
                <polygon id="Fill-24" fill="#000000" points="10.2992 21.1946 35.7492 21.1946 35.7492 16.2036 10.2992 16.2036"></polygon>
                <path d="M7.398,3.699 C7.398,5.742 5.742,7.398 3.699,7.398 C1.656,7.398 0,5.742 0,3.699 C0,1.656 1.656,0 3.699,0 C5.742,0 7.398,1.656 7.398,3.699" id="Fill-25" fill="#000000"></path>
                <path d="M7.398,33.699 C7.398,35.742 5.742,37.398 3.699,37.398 C1.656,37.398 0,35.742 0,33.699 C0,31.656 1.656,30 3.699,30 C5.742,30 7.398,31.656 7.398,33.699" id="Fill-26" fill="#000000"></path>
                <path d="M7.398,18.785 C7.398,20.828 5.742,22.484 3.699,22.484 C1.656,22.484 0,20.828 0,18.785 C0,16.742 1.656,15.086 3.699,15.086 C5.742,15.086 7.398,16.742 7.398,18.785" id="Fill-27" fill="#000000"></path>
            </g>
        </g>
    </g>
</svg>