<?xml version="1.0" encoding="UTF-8"?>
<svg width="86px" height="43px" viewBox="0 0 86 43" version="1.1" xmlns="http://www.w3.org/2000/svg" xmlns:xlink="http://www.w3.org/1999/xlink">
    <title>Group 10</title>
    <g id="Establecimiento" stroke="none" stroke-width="1" fill="none" fill-rule="evenodd">
        <g id="10--Clientes" transform="translate(-149.000000, -247.000000)">
            <g id="Group" transform="translate(105.000000, 193.000000)">
                <g id="Group-10" transform="translate(44.000000, 54.000000)">
                    <polygon id="Fill-1" fill="#000000" points="12 8 41 8 41 2 12 2"></polygon>
                    <polygon id="Fill-2" fill="#000000" points="12 41 41 41 41 35 12 35"></polygon>
                    <polygon id="Fill-3" fill="#000000" points="12 25 41 25 41 19 12 19"></polygon>
                    <path d="M8,3.99998068 C8,6.20907347 6.2089956,8 3.99980675,8 C1.7910044,8 0,6.20907347 0,3.99998068 C0,1.79092653 1.7910044,0 3.99980675,0 C6.2089956,0 8,1.79092653 8,3.99998068" id="Fill-4" fill="#000000"></path>
                    <path d="M8,38.9998068 C8,41.2091686 6.2089956,43 3.99980675,43 C1.7910044,43 0,41.2091686 0,38.9998068 C0,36.7908314 1.7910044,35 3.99980675,35 C6.2089956,35 8,36.7908314 8,38.9998068" id="Fill-5" fill="#000000"></path>
                    <path d="M8,22 C8,24.2090821 6.2089956,26 3.99980675,26 C1.7910044,26 0,24.2090821 0,22 C0,19.7909179 1.7910044,18 3.99980675,18 C6.2089956,18 8,19.7909179 8,22" id="Fill-6" fill="#000000"></path>
                    <path d="M79.7679307,3.12137697 L66,21.4765324 L52.2328778,3.12137697 L79.7679307,3.12137697 Z M66.5582194,22.6012784 L82,2 L50,2 L65.4421848,22.6008725 L65.4421848,40.8785013 L60.6425486,40.8785013 L60.6425486,42 L71.3954475,42 L71.3954475,40.8785013 L66.5582194,40.8785013 L66.5582194,22.6012784 Z" id="Fill-7" fill="#FCFCDF"></path>
                    <polygon id="Fill-8" fill="#000000" points="80.3098294 4 68 19.5267355 70.781852 23 86 4"></polygon>
                    <polygon id="Fill-9" fill="#000000" points="78 4 56 4 66.9580224 18"></polygon>
                </g>
            </g>
        </g>
    </g>
</svg>